<?xml version="1.0" encoding="utf-8"?>
<!-- Generator: Adobe Illustrator 24.0.2, SVG Export Plug-In . SVG Version: 6.00 Build 0)  -->
<svg version="1.1" id="Camada_1" xmlns="http://www.w3.org/2000/svg" xmlns:xlink="http://www.w3.org/1999/xlink" x="0px" y="0px"
	 width="326.8px" height="124.3px" viewBox="0 0 326.8 124.3" style="enable-background:new 0 0 326.8 124.3;" xml:space="preserve"
	>
<style type="text/css">
	.st0{fill:#0072C0;}
	.st1{fill:#FF1B22;}
	.st2{fill:#FFFFFF;}
	.st3{fill:none;}
</style>
<g>
	<g>
		<path class="st0" d="M13.7,62.6c27.8,14.2,54.9,6.3,81.7-16.2c-7.8-12.7-21.8-21.1-37.8-21.1C35.5,25.3,17.2,41.5,13.7,62.6
			L13.7,62.6z"/>
		<path class="st0" d="M24.2,99.2L24.2,99.2c8.1,9.2,20.1,15.1,33.4,15.1c24.6,0,44.5-19.9,44.5-44.5c0-5.3-0.9-10.4-2.6-15.1
			C79.5,84.1,55.1,100.7,24.2,99.2z"/>
	</g>
	<path class="st1" d="M106.7,25.3c9-4.9,15.1-11.5,18-20.2c1.4,11.5,0.5,21.3-4.2,28.3l-1.4-11.3C116.7,22.8,111.9,24,106.7,25.3z"
		/>
	<g>
		<path class="st2" d="M154.3,44.4v7.5h-17.1v7.7h15.4v7.1h-15.4v7.8h17.6v7.4h-25.3V44.4H154.3z"/>
		<path class="st2" d="M168,81.9l-10.5-29h7.7l6.6,18.2l6.6-18.2h7.7l-10.5,29C175.6,81.9,168,81.9,168,81.9z"/>
		<path class="st2" d="M212.6,77.7c-3,3.1-6.5,4.6-10.5,4.6s-7.3-1.4-10-4.1c-2.6-2.7-3.9-6.3-3.9-10.9c0-4.5,1.3-8.2,4-10.9
			s5.8-4,9.5-4c3.6,0,6.7,1.2,9.3,3.6c2.5,2.4,3.8,5.7,3.8,9.9v4.3h-19.3c0.2,1.6,1,2.9,2.3,3.9s2.7,1.5,4.3,1.5
			c2.6,0,4.7-0.9,6.4-2.8L212.6,77.7z M205.6,60.6c-1-0.9-2.3-1.4-3.7-1.4c-1.5,0-2.8,0.5-4,1.5s-1.9,2.3-2.1,3.9h11.6
			C207.2,62.8,206.6,61.5,205.6,60.6z"/>
		<path class="st2" d="M220.9,81.9V44.4h7.7v30.1h14.7V82L220.9,81.9L220.9,81.9z"/>
		<path class="st2" d="M274.1,67.5c0,4.2-1.3,7.7-4,10.6s-6,4.3-10,4.3s-7.4-1.4-10-4.3c-2.7-2.9-4-6.4-4-10.6s1.3-7.7,4-10.6
			c2.7-2.9,6-4.3,10-4.3s7.4,1.4,10,4.3C272.8,59.7,274.1,63.3,274.1,67.5z M253.6,67.5c0,2.4,0.6,4.3,1.8,5.8s2.8,2.2,4.7,2.2
			s3.5-0.7,4.7-2.2s1.8-3.4,1.8-5.8s-0.6-4.3-1.8-5.8s-2.8-2.3-4.7-2.3s-3.5,0.8-4.7,2.3C254.2,63.2,253.6,65.1,253.6,67.5z"/>
		<path class="st2" d="M299.2,77c-2.3,2.8-5.2,4.2-8.7,4.2s-6.4-1.3-8.8-3.8c-2.4-2.6-3.6-6-3.6-10.3s1.2-7.8,3.7-10.5
			c2.4-2.7,5.2-4.1,8.4-4.1c3.1,0,5.8,1.4,7.8,4.2V53h7.4v25.2c0,2.6-0.4,4.9-1.2,6.9c-0.8,2-1.9,3.6-3.3,4.7
			c-2.7,2.4-5.9,3.5-9.6,3.5c-2,0-4-0.3-6-1s-3.8-1.7-5.4-3l2.9-6.1c2.4,2,5,3,7.7,3s4.8-0.7,6.4-2.2
			C298.4,82.5,299.2,80.2,299.2,77z M298.1,66.9c0-2.3-0.6-4.1-1.8-5.5c-1.2-1.3-2.6-2-4.4-2c-1.7,0-3.2,0.7-4.5,2s-1.9,3.1-1.9,5.4
			s0.6,4.1,1.8,5.6c1.2,1.4,2.7,2.1,4.5,2.1s3.2-0.7,4.4-2.1C297.5,71,298.1,69.2,298.1,66.9z"/>
	</g>
	<g>
		<path class="st1" d="M129.6,99.1v-9.8h2v7.9h3.8v1.9H129.6z"/>
		<path class="st1" d="M143.5,95.3c0,1.1-0.3,2-1,2.8c-0.7,0.7-1.6,1.1-2.6,1.1s-1.9-0.4-2.6-1.1c-0.7-0.7-1-1.7-1-2.8s0.3-2,1-2.8
			s1.6-1.1,2.6-1.1s1.9,0.4,2.6,1.1C143.2,93.3,143.5,94.2,143.5,95.3z M138.2,95.3c0,0.6,0.2,1.1,0.5,1.5s0.7,0.6,1.2,0.6
			s0.9-0.2,1.2-0.6s0.5-0.9,0.5-1.5s-0.2-1.1-0.5-1.5s-0.7-0.6-1.2-0.6s-0.9,0.2-1.2,0.6C138.3,94.2,138.2,94.7,138.2,95.3z"/>
		<path class="st1" d="M150,97.8c-0.6,0.7-1.4,1.1-2.3,1.1c-0.9,0-1.7-0.3-2.3-1s-0.9-1.6-0.9-2.7s0.3-2,1-2.7
			c0.6-0.7,1.4-1.1,2.2-1.1s1.5,0.4,2,1.1v-1h1.9v6.6c0,0.7-0.1,1.3-0.3,1.8s-0.5,0.9-0.9,1.2c-0.7,0.6-1.5,0.9-2.5,0.9
			c-0.5,0-1-0.1-1.6-0.3c-0.5-0.2-1-0.4-1.4-0.8l0.7-1.6c0.6,0.5,1.3,0.8,2,0.8s1.3-0.2,1.7-0.6C149.8,99.3,150,98.6,150,97.8z
			 M149.8,95.2c0-0.6-0.2-1.1-0.5-1.4s-0.7-0.5-1.1-0.5c-0.5,0-0.8,0.2-1.2,0.5c-0.3,0.3-0.5,0.8-0.5,1.4s0.2,1.1,0.5,1.5
			s0.7,0.6,1.2,0.6s0.8-0.2,1.2-0.5C149.6,96.2,149.8,95.8,149.8,95.2z"/>
		<path class="st1" d="M153.5,91.6h1.9v7.5h-1.9V91.6z M155.4,90.5h-1.8l1.6-2.5l2,0.9L155.4,90.5z"/>
		<path class="st1" d="M162.4,96.7c0,0.7-0.3,1.3-0.8,1.8c-0.5,0.4-1.1,0.7-1.9,0.7c-0.5,0-1-0.1-1.6-0.3c-0.6-0.2-1.1-0.5-1.5-0.9
			l0.8-1.3c0.7,0.6,1.5,0.9,2.3,0.9c0.2,0,0.4-0.1,0.6-0.2c0.1-0.1,0.2-0.3,0.2-0.4c0-0.2-0.1-0.3-0.3-0.5c-0.2-0.1-0.5-0.3-0.9-0.4
			s-0.7-0.2-0.9-0.3c-0.2-0.1-0.4-0.2-0.7-0.4c-0.5-0.4-0.8-0.9-0.8-1.6s0.3-1.3,0.8-1.7c0.5-0.4,1.2-0.7,2-0.7s1.6,0.3,2.4,0.9
			l-0.7,1.4c-0.6-0.4-1.2-0.7-1.8-0.7s-0.9,0.2-0.9,0.5c0,0.2,0.1,0.4,0.3,0.5s0.5,0.2,0.9,0.4c0.4,0.1,0.7,0.3,0.9,0.3
			c0.2,0.1,0.4,0.2,0.7,0.4C162.2,95.5,162.4,96,162.4,96.7z"/>
		<path class="st1" d="M166.2,93.1v3.4c0,0.3,0.1,0.5,0.2,0.7c0.1,0.2,0.3,0.2,0.5,0.2c0.4,0,0.7-0.2,0.9-0.5l0.7,1.5
			c-0.6,0.6-1.2,0.9-1.9,0.9s-1.2-0.2-1.7-0.7s-0.7-1.1-0.7-1.9v-3.5h-0.8v-1.5h0.8v-2.3h1.9v2.3h1.7v1.5L166.2,93.1L166.2,93.1z"/>
		<path class="st1" d="M169.7,90.6c-0.2-0.2-0.3-0.5-0.3-0.9c0-0.3,0.1-0.6,0.3-0.9c0.2-0.2,0.5-0.4,0.8-0.4s0.6,0.1,0.8,0.4
			c0.2,0.2,0.3,0.5,0.3,0.9c0,0.3-0.1,0.6-0.3,0.9c-0.2,0.2-0.5,0.4-0.8,0.4C170.2,90.9,169.9,90.8,169.7,90.6z M171.4,99.1h-1.9
			v-7.5h1.9V99.1z"/>
		<path class="st1" d="M176.6,97.3c0.6,0,1.2-0.4,1.7-1.1l1.1,1.4c-0.9,1-1.9,1.5-2.9,1.5s-1.9-0.4-2.6-1.1
			c-0.7-0.7-1.1-1.6-1.1-2.8c0-1.2,0.4-2.1,1.1-2.8c0.7-0.7,1.6-1.1,2.6-1.1c0.5,0,1,0.1,1.5,0.3c0.5,0.2,1,0.6,1.3,1l-1,1.4
			c-0.2-0.3-0.5-0.5-0.8-0.7s-0.6-0.2-1-0.2c-0.5,0-0.9,0.2-1.3,0.5c-0.4,0.4-0.5,0.9-0.5,1.5s0.2,1.1,0.5,1.5
			C175.6,97.2,176.1,97.3,176.6,97.3z"/>
		<path class="st1" d="M186.6,99.1h-1.8v-0.9c-0.5,0.7-1.1,1-1.8,1s-1.3-0.2-1.8-0.7s-0.7-1.1-0.7-1.9s0.3-1.3,0.8-1.7
			c0.5-0.4,1.2-0.6,2.1-0.6h1.4l0,0c0-0.8-0.4-1.2-1.2-1.2c-0.3,0-0.7,0.1-1.1,0.2c-0.4,0.1-0.7,0.3-0.9,0.5l-0.9-1.4
			c0.9-0.7,1.9-1.1,3.1-1.1c0.8,0,1.5,0.2,2.1,0.7c0.5,0.5,0.8,1.2,0.8,2.2v4.9H186.6z M184.6,96.2v-0.4h-1.2
			c-0.8,0-1.2,0.3-1.2,0.8c0,0.3,0.1,0.5,0.3,0.6s0.4,0.2,0.8,0.2c0.3,0,0.6-0.1,0.9-0.3C184.5,96.9,184.6,96.6,184.6,96.2z"/>
		<path class="st1" d="M197.7,98c-0.8,0.8-1.7,1.2-2.7,1.2s-1.9-0.4-2.6-1.1c-0.7-0.7-1-1.7-1-2.8c0-1.2,0.3-2.1,1-2.8
			c0.7-0.7,1.5-1.1,2.5-1.1s1.8,0.3,2.4,0.9c0.7,0.6,1,1.5,1,2.6V96h-5c0.1,0.4,0.3,0.7,0.6,1s0.7,0.4,1.1,0.4
			c0.7,0,1.2-0.2,1.7-0.7L197.7,98z M195.9,93.5c-0.3-0.2-0.6-0.4-1-0.4s-0.7,0.1-1,0.4s-0.5,0.6-0.6,1h3
			C196.3,94.1,196.1,93.8,195.9,93.5z"/>
		<path class="st1" d="M207,91.2v7.9h-2v-7.9h-2.5v-1.9h7.1v1.9H207z"/>
		<path class="st1" d="M214.5,93.4c-0.6,0-1,0.2-1.3,0.7c-0.3,0.4-0.4,1-0.4,1.8v3.3h-1.9v-7.5h1.9v1c0.2-0.3,0.6-0.6,0.9-0.8
			c0.4-0.2,0.8-0.3,1.1-0.3v2h-0.3V93.4z"/>
		<path class="st1" d="M221.9,99.1h-1.8v-0.9c-0.5,0.7-1.1,1-1.8,1s-1.3-0.2-1.8-0.7s-0.7-1.1-0.7-1.9s0.3-1.3,0.8-1.7
			c0.5-0.4,1.2-0.6,2.1-0.6h1.4l0,0c0-0.8-0.4-1.2-1.2-1.2c-0.3,0-0.7,0.1-1.1,0.2c-0.4,0.1-0.7,0.3-0.9,0.5l-0.9-1.4
			c0.9-0.7,1.9-1.1,3.1-1.1c0.8,0,1.5,0.2,2.1,0.7c0.5,0.5,0.8,1.2,0.8,2.2v4.9H221.9z M220,96.2v-0.4h-1.2c-0.8,0-1.2,0.3-1.2,0.8
			c0,0.3,0.1,0.5,0.3,0.6s0.4,0.2,0.8,0.2c0.3,0,0.6-0.1,0.9-0.3C219.8,96.9,220,96.6,220,96.2z"/>
		<path class="st1" d="M225.6,94.9v4.2h-1.9v-7.5h1.9v0.8c0.6-0.6,1.2-1,2-1c0.7,0,1.3,0.3,1.8,0.8c0.5,0.6,0.7,1.3,0.7,2.2V99h-1.9
			v-4.3c0-1.2-0.4-1.7-1.2-1.7c-0.4,0-0.7,0.2-1,0.5C225.7,93.9,225.6,94.3,225.6,94.9z"/>
		<path class="st1" d="M237.1,96.7c0,0.7-0.3,1.3-0.8,1.8c-0.5,0.4-1.1,0.7-1.9,0.7c-0.5,0-1-0.1-1.6-0.3c-0.6-0.2-1.1-0.5-1.5-0.9
			l0.8-1.3c0.7,0.6,1.5,0.9,2.3,0.9c0.2,0,0.4-0.1,0.6-0.2c0.1-0.1,0.2-0.3,0.2-0.4c0-0.2-0.1-0.3-0.3-0.5c-0.2-0.1-0.5-0.3-0.9-0.4
			s-0.7-0.2-0.9-0.3c-0.2-0.1-0.4-0.2-0.7-0.4c-0.5-0.4-0.8-0.9-0.8-1.6s0.3-1.3,0.8-1.7c0.5-0.4,1.2-0.7,2-0.7s1.6,0.3,2.4,0.9
			l-0.7,1.4c-0.6-0.4-1.2-0.7-1.8-0.7s-0.9,0.2-0.9,0.5c0,0.2,0.1,0.4,0.3,0.5s0.5,0.2,0.9,0.4c0.4,0.1,0.7,0.3,0.9,0.3
			c0.2,0.1,0.4,0.2,0.7,0.4C236.8,95.5,237.1,96,237.1,96.7z"/>
		<path class="st1" d="M242.5,91.4c0.8,0,1.5,0.4,2.1,1.1s0.9,1.7,0.9,2.8c0,1.1-0.3,2-0.9,2.8c-0.6,0.7-1.4,1.1-2.2,1.1
			s-1.5-0.4-2-1.1v3.7h-1.9V91.6h1.9v0.8C241,91.7,241.7,91.4,242.5,91.4z M240.4,95.3c0,0.6,0.2,1.1,0.5,1.5s0.7,0.6,1.1,0.6
			c0.4,0,0.8-0.2,1.2-0.6c0.3-0.4,0.5-0.9,0.5-1.5s-0.2-1.1-0.5-1.5s-0.7-0.6-1.2-0.6s-0.8,0.2-1.1,0.6
			C240.6,94.2,240.4,94.7,240.4,95.3z"/>
		<path class="st1" d="M254,95.3c0,1.1-0.3,2-1,2.8c-0.7,0.7-1.6,1.1-2.6,1.1s-1.9-0.4-2.6-1.1c-0.7-0.7-1-1.7-1-2.8s0.3-2,1-2.8
			s1.6-1.1,2.6-1.1s1.9,0.4,2.6,1.1C253.6,93.3,254,94.2,254,95.3z M248.6,95.3c0,0.6,0.2,1.1,0.5,1.5s0.7,0.6,1.2,0.6
			s0.9-0.2,1.2-0.6s0.5-0.9,0.5-1.5s-0.2-1.1-0.5-1.5s-0.7-0.6-1.2-0.6s-0.9,0.2-1.2,0.6C248.8,94.2,248.6,94.7,248.6,95.3z"/>
		<path class="st1" d="M259,93.4c-0.6,0-1,0.2-1.3,0.7c-0.3,0.4-0.4,1-0.4,1.8v3.3h-1.9v-7.5h1.9v1c0.2-0.3,0.6-0.6,0.9-0.8
			c0.4-0.2,0.8-0.3,1.1-0.3v2H259V93.4z"/>
		<path class="st1" d="M263,93.1v3.4c0,0.3,0.1,0.5,0.2,0.7s0.3,0.2,0.5,0.2c0.4,0,0.7-0.2,0.9-0.5l0.7,1.5
			c-0.6,0.6-1.2,0.9-1.9,0.9s-1.2-0.2-1.7-0.7s-0.7-1.1-0.7-1.9v-3.5h-0.8v-1.5h0.8v-2.3h1.9v2.3h1.7v1.5L263,93.1L263,93.1z"/>
		<path class="st1" d="M272.3,98c-0.8,0.8-1.7,1.2-2.7,1.2s-1.9-0.4-2.6-1.1s-1-1.7-1-2.8c0-1.2,0.3-2.1,1-2.8
			c0.7-0.7,1.5-1.1,2.5-1.1s1.8,0.3,2.4,0.9c0.7,0.6,1,1.5,1,2.6V96h-5c0.1,0.4,0.3,0.7,0.6,1c0.3,0.3,0.7,0.4,1.1,0.4
			c0.7,0,1.2-0.2,1.7-0.7L272.3,98z M270.4,93.5c-0.3-0.2-0.6-0.4-1-0.4s-0.7,0.1-1,0.4s-0.5,0.6-0.6,1h3
			C270.9,94.1,270.7,93.8,270.4,93.5z"/>
	</g>
	<rect class="st3" width="326.8" height="124.3"/>
	<path class="st0" d="M95.1,45.9c7.8-6.6,15.1-13.1,21.5-20.3c-4.8,10.3-10.4,20.3-16.9,30.1l-0.3-0.8c7.8-11.4,11-18.1,14.6-25.4
		c-5.3,5.9-11.9,11.2-18.6,17.1L95.1,45.9z"/>
</g>
</svg>
